# xmcd
#
# Track frame offsets: 
#        150
#        21024
#        39650
#        57198
#        74325
#        92668
#        111559
#        130703
#        147689
#        165474
#        182562
#        200033
#        218147
#        236967
#        255005
#        273636
#        291220
#        308953
#
# Disc length: 4440 seconds
#
# Revision: 3
# Processed by: cddbd v1.5.1PL0 Copyright (c) Steve Scherf et al.
# Submitted via: ExactAudioCopy v0.95a5
#
DISCID=15115612
DTITLE=Various Artist - Masters of Hardcore - chapter V
DYEAR=2001
DGENRE=Hardcore
TTITLE0=Bass-D and King Matthew - More Than Rough
TTITLE1=DJ Promo - I Come Correct
TTITLE2=The Alienator - This Is War
TTITLE3=The Masochist vs. DJ Buzz Fuzz - Hardkoor
TTITLE4=Core Pusher - Devil Down
TTITLE5=DJ J.D.A. feat. XZ - I'm Hard To The Core
TTITLE6=Endymion - We Are The Future
TTITLE7=Negative A - Keep You In Safety
TTITLE8=Bass-D and King Matthew - Resistance Is Futile
TTITLE9=Unknown - Bring the Pain
TTITLE10=DJ E-Rick - Time For The Real Shit
TTITLE11=DJ Outblast - The Future
TTITLE12=DJ Buzz Fuzz and The Prophet - Go Get Ill
TTITLE13=The Wishmaster - Hardcoreklan
TTITLE14=Evil Activities and DJ Panic - Be Quiet
TTITLE15=DJ Promo vs. DJ Bike - No Commercial Sound
TTITLE16=The Masochist vs. Digital Boy - Shoutz
TTITLE17=DJ J.D.A. - Voel Je Die Bass ?
EXTD=
EXTT0=
EXTT1=
EXTT2=
EXTT3=
EXTT4=
EXTT5=
EXTT6=
EXTT7=
EXTT8=
EXTT9=
EXTT10=
EXTT11=
EXTT12=
EXTT13=
EXTT14=
EXTT15=
EXTT16=
EXTT17=
PLAYORDER=
